<?xml version="1.0" encoding="utf-8"?>
<!-- Generator: Adobe Illustrator 23.0.1, SVG Export Plug-In . SVG Version: 6.00 Build 0)  -->
<svg version="1.1" baseProfile="tiny" xmlns="http://www.w3.org/2000/svg" xmlns:xlink="http://www.w3.org/1999/xlink" x="0px"
	 y="0px" viewBox="0 0 1580 628" xml:space="preserve">
<g id="Capa_2">
</g>
<g id="Capa_1">
	<g>
		<g>
			<path fill-rule="evenodd" fill="#002D74" d="M703.08,225.13c0,19.59,14.17,32.82,35.36,32.7c21.07-0.12,35.24-13.5,35.24-33.09
				v-56.06l-15.89,0.09v55.93c0,11.83-7.76,18.52-19.47,18.59c-11.7,0.07-19.34-6.54-19.34-18.25v-56.06l-15.89,0.09V225.13
				L703.08,225.13z M794.61,256.04l15.89-0.09v-50.39c0-5.17-0.86-13.55-0.86-13.55l0.25,0c0,0,3.94,8.48,7.27,13.51l33.14,50.2
				l15.77-0.09v-87.47l-15.77,0.09v50.51c0,5.17,0.86,13.55,0.86,13.55l-0.25,0c0,0-3.94-8.48-7.27-13.51l-33.14-50.33l-15.89,0.09
				V256.04L794.61,256.04z M888.25,255.51l15.89-0.09v-87.47l-15.89,0.09V255.51L888.25,255.51z M947.01,255.18l15.77-0.09
				l31.91-87.65l-17,0.1l-19.34,57.15c-1.72,5.06-3.2,12.83-3.33,12.83l-0.25,0c-0.12,0-1.6-7.75-3.33-12.8l-19.22-56.93l-17.13,0.1
				L947.01,255.18L947.01,255.18z M1005.66,254.86l54.33-0.3v-13.68l-38.44,0.21v-23.53l29.44-0.16v-13.68l-29.44,0.16v-22.92
				l36.47-0.2v-13.68l-52.36,0.29V254.86L1005.66,254.86z M1076.5,254.46l15.89-0.09v-32.65l15.28-0.09l17.37,32.55l17.74-0.1
				l-17.99-32.55c-1.72-3.07-2.96-4.3-2.96-4.3V217c9.24-3.75,14.78-13.51,14.78-23.98c0-11.58-5.54-19.93-14.29-23.82
				c-3.82-1.7-8.13-2.42-17.62-2.36l-28.21,0.16V254.46L1076.5,254.46z M1092.39,207.92v-27.35l12.07-0.07
				c12.44-0.07,16.02,5.09,16.02,13.46c0,8.75-5.3,13.83-13.8,13.88L1092.39,207.92L1092.39,207.92z M1150.91,243.57
				c0,0,10.72,11.89,30.18,11.78c18.23-0.1,28.83-11.87,28.83-25.79c0-27.97-41.15-23.92-41.15-39.44c0-6.16,5.79-10.5,13.18-10.55
				c10.96-0.06,19.34,7.53,19.34,7.53l6.9-12.97c0,0-8.87-9.31-26.12-9.22c-16.75,0.09-29.32,11.01-29.32,25.54
				c0,26.86,41.27,23.92,41.27,39.56c0,7.15-6.04,10.63-12.69,10.67c-12.32,0.07-21.81-9.12-21.81-9.12L1150.91,243.57
				L1150.91,243.57z M1225.81,253.62l15.89-0.09v-87.47l-15.89,0.09V253.62L1225.81,253.62z M1263.88,253.41l29.81-0.17
				c26.98-0.15,44.6-16.51,44.6-44.11s-17.62-43.51-44.6-43.36l-29.81,0.17V253.41L1263.88,253.41z M1279.78,239.65v-60.12
				l13.06-0.07c17.49-0.1,29.08,10.31,29.08,29.77c0,19.71-11.33,30.25-29.08,30.35L1279.78,239.65L1279.78,239.65z M1405.32,252.62
				l16.39-0.09l-30.8-87.3l-16.63,0.09l-30.8,87.64l16.39-0.09l7.39-22.46l30.68-0.17L1405.32,252.62L1405.32,252.62z
				 M1382.77,180.43c0,0,1.85,8.61,3.45,13.53l7.76,23.36l-22.92,0.13l7.76-23.45c1.72-4.94,3.7-13.57,3.7-13.57L1382.77,180.43
				L1382.77,180.43z M1432.91,252.47l29.81-0.17c26.98-0.15,44.6-16.51,44.6-44.11c0-27.6-17.62-43.51-44.6-43.36l-29.81,0.17
				V252.47L1432.91,252.47z M1448.81,238.7v-60.12l13.06-0.07c17.49-0.1,29.08,10.31,29.08,29.78c0,19.71-11.33,30.25-29.08,30.35
				L1448.81,238.7z"/>
			<path fill-rule="evenodd" fill="#002D74" d="M702.03,375.92l27.97-0.16c26-0.15,43.49-16.01,43.49-43.61
				c0-27.35-17.49-43.15-43.49-43l-27.97,0.16V375.92L702.03,375.92z M710.53,368.24V296.9l18.6-0.1
				c21.19-0.12,35.48,12.37,35.48,35.41c0,23.16-14.17,35.81-35.48,35.93L710.53,368.24L710.53,368.24z M793.2,375.41l51-0.29v-7.64
				l-42.5,0.24v-32.16l32.89-0.18v-7.64l-32.89,0.18v-31.54l40.29-0.23v-7.64l-48.79,0.27V375.41L793.2,375.41z M896.69,374.83
				l48.66-0.27v-7.64l-40.16,0.23v-78.97l-8.5,0.05V374.83L896.69,374.83z M1013.23,374.18l8.99-0.05l-31.79-86.43l-9.12,0.05
				l-31.78,86.79l8.99-0.05l9.86-27.65l34.87-0.2L1013.23,374.18L1013.23,374.18z M986.01,296.72c0,0,1.85,7.14,3.33,11.19
				l11.33,31.35l-29.81,0.17l11.58-31.48c1.48-4.07,3.33-11.23,3.33-11.23L986.01,296.72L986.01,296.72z M1063.13,364.29
				c0,0,9.73,11.03,27.47,10.93c16.26-0.09,26.24-10.62,26.24-23.55c0-28.46-43.24-22.3-43.24-42.88c0-7.64,7.15-14.95,18.23-15.01
				c11.33-0.06,18.97,7.29,18.97,7.29l4.19-7.17c0,0-8.13-8.33-23.16-8.25c-16.02,0.09-26.98,10.99-26.98,23.44
				c0,26.86,43.24,21.07,43.24,42.88c0,9.36-7.76,15.07-17.25,15.13c-13.68,0.08-22.67-9.36-22.67-9.36L1063.13,364.29
				L1063.13,364.29z M1135.82,373.5l51.01-0.29v-7.64l-42.5,0.24v-32.16l32.89-0.18v-7.64l-32.89,0.18v-31.54l40.29-0.23v-7.64
				l-48.79,0.27V373.5L1135.82,373.5z M1206.16,373.1l8.5-0.05v-36.47l21.81-0.12l19.59,36.36l9.73-0.05l-18.85-34.76
				c-1.35-2.33-2.22-3.44-2.22-3.44v-0.25c9.73-2.77,16.39-11.8,16.39-23.5c0-10.47-4.93-18.7-13.06-22.23
				c-3.45-1.46-7.39-2.3-16.26-2.25l-25.63,0.14V373.1L1206.16,373.1z M1214.66,328.95v-34.87l17.49-0.1
				c6.65-0.04,9.73,0.68,12.32,2.03c5.05,2.68,7.89,7.96,7.89,15.11c0,10.84-6.65,17.66-17.13,17.71L1214.66,328.95L1214.66,328.95z
				 M1283.53,372.67l51-0.29v-7.64l-42.5,0.24v-32.16l32.89-0.18v-7.64l-32.89,0.18v-31.54l40.29-0.23v-7.64l-48.79,0.27V372.67
				L1283.53,372.67z M1353.88,372.28l8.5-0.05v-62.34c0-4.56-0.74-11.7-0.74-11.7l0.25,0c0,0,4.19,7.37,7.15,11.66l44.23,62.09
				l8.25-0.05v-86.61l-8.5,0.05v62.34c0,4.56,0.74,11.7,0.74,11.7l-0.25,0c0,0-4.19-7.37-7.15-11.66l-44.23-62.09l-8.25,0.05V372.28
				L1353.88,372.28z M1499.38,371.46l8.99-0.05l-31.79-86.43l-9.12,0.05l-31.78,86.79l8.99-0.05l9.86-27.65l34.87-0.2
				L1499.38,371.46L1499.38,371.46z M1472.15,294c0,0,1.85,7.14,3.33,11.19l11.33,31.35l-29.81,0.17l11.58-31.48
				c1.48-4.07,3.33-11.23,3.33-11.23L1472.15,294z"/>
			<path fill-rule="evenodd" fill="#002D74" d="M702,440.63c0,12.63,9.12,22.61,21.93,22.54c10.65-0.06,16.57-6.81,16.57-6.81
				l-2.46-3c0,0-5.3,5.82-14.04,5.87c-10.29,0.06-17.55-8.34-17.55-18.69c0-10.22,7.27-18.15,17.43-18.2
				c8.13-0.05,13.18,4.73,13.18,4.73l2.28-3.15c0,0-5.23-5.58-15.58-5.52C711.36,418.47,702,428.07,702,440.63L702,440.63z
				 M749.73,462.29l4.25-0.02V442.5l25.13-0.14v19.77l4.25-0.02v-43.3l-4.25,0.02v19.71l-25.13,0.14v-19.71l-4.25,0.02V462.29
				L749.73,462.29z M795.92,462.03l4.25-0.02v-43.3l-4.25,0.02V462.03L795.92,462.03z M812.74,461.94l24.33-0.14v-3.82l-20.08,0.11
				v-39.48l-4.25,0.02V461.94L812.74,461.94z M844.64,461.76l25.5-0.14v-3.82l-21.25,0.12v-16.07l16.44-0.09v-3.82l-16.44,0.09
				v-15.77l20.14-0.11v-3.82l-24.39,0.14V461.76z"/>
		</g>
		<g>
			
				<ellipse transform="matrix(0.7061 -0.7081 0.7081 0.7061 -121.053 336.3599)" fill-rule="evenodd" fill="#FFFFFF" cx="344.65" cy="314" rx="273.79" ry="272.26"/>
			<g>
				<g>
					
						<ellipse transform="matrix(0.7058 -0.7084 0.7084 0.7058 -121.0438 336.5386)" fill-rule="evenodd" fill="#002D74" cx="344.65" cy="314" rx="210.59" ry="209.42"/>
					<polygon fill-rule="evenodd" fill="#FFFFFF" points="285.76,159.82 338.81,127.73 338.81,175.95 290.78,204.54 225.6,204.91 
						225.6,160.9 					"/>
					<polygon fill-rule="evenodd" fill="#CE0E2D" points="236.23,169.77 236.23,195.81 288.31,195.52 329.77,170.84 329.77,143.73 
						288.31,168.81 					"/>
					<polygon fill-rule="evenodd" fill="#FFFFFF" points="225.6,221.51 288.31,221.16 338.81,192.48 338.81,183.44 288.31,212.12 
						225.6,212.48 					"/>
					<polygon fill-rule="evenodd" fill="#FFFFFF" points="225.6,240.01 288.31,239.66 338.81,210.97 338.81,201.94 288.31,230.62 
						225.6,230.97 					"/>
					<polygon fill-rule="evenodd" fill="#FFFFFF" points="288.89,312.52 356.81,350.42 356.81,390.67 343.27,397.93 329.7,390.83 
						329.7,365.07 288.89,342.33 288.89,407.59 340.24,436 340.18,500.33 227.13,437.25 227.13,308.23 216.74,308.29 216.74,246.65 
						288.89,246.24 					"/>
					<polygon fill-rule="evenodd" fill="#CE0E2D" points="225.78,255.64 236.17,255.58 279.85,255.33 279.85,298.9 279.85,317.86 
						347.77,355.75 347.77,385.29 343.26,387.7 338.74,385.34 338.74,359.74 279.85,326.92 279.85,412.94 331.19,441.35 
						331.15,484.92 236.17,431.92 236.17,299.14 225.78,299.2 					"/>
					<polygon fill-rule="evenodd" fill="#FFFFFF" points="356.82,281.12 400.42,305.42 400.42,245.62 472.57,245.22 472.57,306.86 
						462.18,306.92 462.18,435.94 349.13,500.28 349.07,435.95 400.42,406.96 400.42,335.23 329.7,295.78 329.7,255.52 
						343.25,248.26 356.82,255.36 					"/>
					<polygon fill-rule="evenodd" fill="#CE0E2D" points="347.78,260.86 347.78,286.45 409.46,320.83 409.46,298.17 409.46,254.61 
						453.14,254.36 463.53,254.31 463.53,297.87 453.14,297.93 453.14,430.71 358.16,484.77 358.12,441.2 409.46,412.21 409.46,331 
						407.94,329.05 338.74,290.44 338.74,260.91 343.25,258.49 					"/>
					<polygon fill-rule="evenodd" fill="#FFFFFF" points="400.74,159.18 347.69,127.68 347.69,175.9 395.72,203.96 460.9,203.59 
						460.9,159.59 					"/>
					<polygon fill-rule="evenodd" fill="#CE0E2D" points="450.27,168.57 450.27,194.61 398.19,194.9 356.73,170.69 356.73,143.58 
						398.19,168.2 					"/>
					<polygon fill-rule="evenodd" fill="#FFFFFF" points="460.9,220.2 398.19,220.55 347.69,192.43 347.69,183.39 398.19,211.51 
						460.9,211.16 					"/>
					<polygon fill-rule="evenodd" fill="#FFFFFF" points="460.9,238.69 398.19,239.04 347.69,210.92 347.69,201.89 398.19,230 
						460.9,229.65 					"/>
					<path fill-rule="evenodd" fill="#002D74" d="M176.15,434.08l-41.32,41.55c48.28,62.76,124.3,103,209.82,102.52
						c85.54-0.48,161.56-41.57,209.84-104.88l-41.26-41.03l2-2.01l41,40.77c33.02-44.28,52.58-99.14,52.58-158.47
						c0-145.89-118.27-263.49-264.16-262.67C198.76,50.67,80.5,169.59,80.5,315.48c0,59.33,19.56,113.98,52.59,157.89l41.06-41.29
						L176.15,434.08L176.15,434.08z M344.65,45.7c148.18-0.83,268.31,118.62,268.31,266.8c0,148.18-120.13,268.97-268.31,269.8
						c-148.18,0.83-268.3-118.62-268.3-266.8C76.35,167.32,196.47,46.53,344.65,45.7z"/>
					<path fill-rule="evenodd" fill="#002D74" d="M96.55,295.84l-0.86-0.06l0.62-8.17l0.86,0.06l-0.22,2.92l24.63,1.74
						c1.2,0.08,2.21,0.53,3.06,1.34c0.85,0.81,1.48,1.82,1.88,3.04c0.4,1.21,0.57,2.43,0.52,3.66c-0.09,1.22-0.38,2.56-0.85,4.01
						c-0.48,1.46-1.03,2.57-1.67,3.34c-1.34,1.55-3.12,2.25-5.31,2.1l-21.45-1.51c-1.43-0.1-2.23,1.03-2.41,3.39l-0.86-0.06
						l0.74-9.78l0.86,0.06l-0.23,3.09l23.96,1.69c1.68,0.12,3.08-0.42,4.19-1.63c1.12-1.2,1.75-2.8,1.9-4.78
						c0.13-1.76-0.3-3.25-1.31-4.44c-1.01-1.19-2.28-1.85-3.8-1.95l-21.82-1.54c-1.43-0.1-2.21,0.76-2.35,2.58L96.55,295.84
						L96.55,295.84z M127.23,283.18l0.51-2.88l-24.26-4.2c-1.35-0.23-2.33-0.25-2.95-0.05c-0.99,0.3-1.66,1.42-2.01,3.39l-0.84-0.15
						l0.93-5.2l27.58-9.66l0.02-0.11l-21.13-3.66c-0.88-0.15-1.67,0.07-2.39,0.66c-0.72,0.6-1.17,1.42-1.36,2.47l-0.85-0.15
						l1.4-7.84l0.84,0.15l-0.47,2.65l30.89,5.35l-0.16,0.9l-27.74,9.87l-0.01,0.06l19.24,3.33c1.49,0.26,2.57,0.04,3.26-0.66
						c0.45-0.55,0.8-1.48,1.03-2.79l0.84,0.15l-1.52,8.53L127.23,283.18L127.23,283.18z M132.99,254.36l0.89-3.14l-25.78-7.18
						c-0.85-0.24-1.49-0.09-1.93,0.46c-0.44,0.54-0.82,1.38-1.14,2.5l-0.83-0.23l2.71-9.56l0.83,0.23l-0.88,3.1l25.1,6.99
						c0.76,0.21,1.28,0.32,1.55,0.31c0.5,0.01,0.91-0.14,1.22-0.45c0.27-0.4,0.6-1.27,0.99-2.63l0.83,0.23l-2.72,9.6L132.99,254.36
						L132.99,254.36z M141.57,222.54l-17.63-14.73c-0.71-0.49-1.15-0.78-1.33-0.86c-0.85-0.38-1.53-0.34-2.04,0.11
						c-0.52,0.45-0.99,1.15-1.43,2.13l-0.24,0.52l-0.78-0.35l4.01-8.9l0.78,0.35l-1.3,2.88l24.86,21.04l-0.47,1.05L118,224.1
						c-1.66-0.09-2.89-0.09-3.73,0.02c-0.84,0.11-1.45,0.34-1.83,0.67c-0.38,0.34-0.74,0.89-1.07,1.63l-0.44,0.99l-0.78-0.35
						l4.56-10.1l0.78,0.35l-1.61,3.56L141.57,222.54L141.57,222.54z M161.26,193.4l1.61,0.92l0.51-0.9l-9.67-5.51l-0.51,0.9
						l2.07,1.18c1.29,0.73,2.19,1.6,2.7,2.6c0.52,1,0.58,2.27,0.21,3.81c-0.86,1.93-1.86,3.9-3.01,5.9l-17.65-10.05
						c0.59-1.03,1.08-1.7,1.48-2c0.74-0.75,1.59-1.01,2.56-0.78c0.97,0.23,2.04,0.69,3.2,1.35l0.43-0.75l-9.76-5.56l-0.43,0.75
						l4.01,2.28l-2.4,4.19l-6.53-3.72l0.71-1.24c1.71-2.99,3.19-4.9,4.44-5.74c1.33-0.88,3.09-0.7,5.28,0.55l1.45,0.82l0.51-0.9
						l-8.97-5.11l-0.51,0.9l1.69,0.97l-8.68,15.15l0.74,0.42c0.59-1.02,1.16-1.72,1.71-2.09c0.56-0.37,1.23-0.34,2.01,0.11
						l23.14,13.18l-1.65,2.88l0.74,0.42L161.26,193.4L161.26,193.4z M142.02,166.29l4.39-5.09l2.2,1.89
						c0.8-4.08,2.32-7.5,4.56-10.25c1.76-2.04,3.88-3.64,6.36-4.8c2.48-1.16,4.95-1.68,7.41-1.57c2.45,0.1,4.53,0.89,6.22,2.35
						c1.84,1.59,3.03,3.57,3.56,5.96c0.53,2.38,0.42,4.88-0.33,7.49c-0.76,2.62-2.04,5.08-3.87,7.39l0.08,0.07
						c0.68-0.39,2.11-1.13,4.28-2.21c2.18-1.08,3.96-2.07,5.33-2.96c1.39-0.89,2.59-1.94,3.63-3.14c0.76-0.88,1.22-1.63,1.36-2.24
						l0.63-0.07c-0.09,1.27-0.7,2.56-1.84,3.88c-0.93,1.08-1.98,2.08-3.16,3.01c-1.18,0.93-2.26,1.7-3.25,2.32
						c-0.98,0.62-2.56,1.57-4.74,2.87c-4.22,2.24-7.83,3.97-10.81,5.19l3.24,2.79c0.51,0.44,0.94,0.68,1.28,0.74
						c0.34,0.05,0.69-0.05,1.06-0.32c0.46-0.44,0.95-0.89,1.46-1.34c0.23-0.36,0.57-0.8,1.01-1.32l0.65,0.56l-7.24,8.4l-0.65-0.56
						l2.03-2.35l-20.32-17.49c-1.03-0.89-2.21-0.57-3.54,0.97l-0.34,0.39L142.02,166.29L142.02,166.29z M150.02,164.31l12.68,10.92
						l-0.2-0.93c4.33-1.43,7.48-3.29,9.46-5.59c1.48-1.72,2.49-3.66,3.01-5.82c0.52-2.16,0.5-4.23-0.04-6.22
						c-0.54-1.99-1.55-3.63-3.04-4.91c-1.64-1.32-3.58-2.09-5.81-2.31c-2.23-0.21-4.48,0.13-6.72,1.04c-2.24,0.9-4.22,2.3-5.94,4.18
						C150.94,157.55,149.8,160.77,150.02,164.31L150.02,164.31z M186.54,117.39l-0.78,0.68l1.22,1.4c-1.61,0.69-2.77,1.34-3.48,1.96
						c-1.56,1.5-2.59,3.21-3.07,5.13c-0.48,1.92-0.14,3.52,0.99,4.83c0.87,1,1.91,1.63,3.11,1.88c1.2,0.24,2.45,0.24,3.76-0.01
						c1.31-0.25,2.88-0.66,4.71-1.25c2.04-0.61,3.75-1.06,5.18-1.35c1.41-0.29,2.77-0.35,4.06-0.16c1.29,0.17,2.38,0.73,3.25,1.68
						c1.06,1.21,1.62,2.67,1.67,4.37c0.05,1.71-0.36,3.44-1.23,5.21c-0.87,1.77-2.09,3.33-3.64,4.69c-1.73,1.51-3.56,2.49-5.48,2.96
						c-1.92,0.46-3.72,0.45-5.41-0.05c-1.68-0.49-3.07-1.36-4.15-2.61c-0.7-0.87-1.18-1.91-1.45-3.12c-0.26-1.2-0.2-2.42,0.17-3.64
						c0.37-1.22,1.09-2.28,2.13-3.19c0.69-0.6,1.46-1.02,2.3-1.24c0.85-0.22,1.64-0.25,2.37-0.08c0.74,0.16,1.31,0.48,1.7,0.93
						c0.94,1.08,0.88,2.26-0.18,3.56l0.45,0.87c0.54-0.3,0.91-0.54,1.12-0.73c0.9-0.79,1.4-1.7,1.5-2.75
						c0.1-1.04-0.17-1.93-0.8-2.66c-0.66-0.75-1.51-1.17-2.58-1.27c-1.07-0.09-2.17,0.1-3.32,0.54c-1.15,0.46-2.15,1.05-3,1.79
						c-1.38,1.2-2.38,2.62-3.03,4.25c-0.65,1.63-0.87,3.25-0.66,4.86c0.21,1.61,0.84,3.02,1.88,4.21c1.31,1.51,2.93,2.43,4.87,2.77
						c1.93,0.34,3.96,0.12,6.1-0.65c2.12-0.77,4.13-1.98,6.02-3.62c1.45-1.26,2.68-2.68,3.71-4.23c1.02-1.55,1.76-3.13,2.19-4.74
						c0.44-1.61,0.54-3.16,0.3-4.66c-0.24-1.49-0.87-2.82-1.87-3.97c-0.99-1.14-2.23-1.86-3.69-2.12c-1.47-0.27-2.98-0.26-4.55,0.04
						c-1.56,0.3-3.42,0.78-5.58,1.46c-1.96,0.63-3.54,1.08-4.73,1.36c-1.18,0.28-2.32,0.35-3.42,0.2c-1.09-0.14-2-0.64-2.74-1.48
						c-0.49-0.56-0.78-1.23-0.86-2.01c-0.08-0.77,0.06-1.55,0.4-2.34c0.35-0.79,0.87-1.51,1.57-2.17c1.51-1.32,2.91-1.69,4.21-1.13
						c1.3,0.57,2.6,1.6,3.89,3.08l1.87,2.15l0.78-0.68L186.54,117.39L186.54,117.39z M217.54,133.84l2.65-1.9l-15.53-21.76
						c-0.51-0.72-1.1-1-1.78-0.85c-0.68,0.15-1.5,0.57-2.45,1.25l-0.5-0.7l8.09-5.8l0.5,0.7l-2.62,1.88l15.12,21.18
						c0.46,0.65,0.8,1.05,1,1.21c0.38,0.32,0.8,0.46,1.22,0.41c0.46-0.15,1.26-0.62,2.41-1.45l0.5,0.7l-8.12,5.82L217.54,133.84
						L217.54,133.84z M230.7,124.28l0.39,0.76l10.87-5.63c2.69-1.39,4.88-2.81,6.59-4.28c1.72-1.46,3.01-2.9,3.9-4.31
						c0.89-1.41,1.61-2.93,2.13-4.54c1.36-3.94,1.16-7.67-0.58-11.21c-0.61-1.18-1.42-2.24-2.43-3.17c-1.02-0.93-2.15-1.7-3.41-2.32
						c-1.26-0.63-2.58-1.1-3.95-1.39c-2.09-0.41-4.25-0.4-6.44,0.02c-2.21,0.42-4.65,1.32-7.32,2.71l-13.62,7.05l0.39,0.76
						l0.61-0.32c1.77-0.92,2.99-0.71,3.68,0.62l12.17,23.69L230.7,124.28L230.7,124.28z M251.48,96.7c-1.22-2.12-3-3.77-5.34-4.93
						c-2.34-1.16-4.94-1.71-7.78-1.64c-2.84,0.06-5.58,0.77-8.21,2.14c-3.06,1.58-5.22,3.04-6.47,4.37l12.2,23.74
						c2.09-0.37,4.74-1.38,7.93-3.03c2.64-1.37,4.76-3.23,6.35-5.59c1.6-2.36,2.51-4.89,2.74-7.58
						C253.12,101.47,252.65,98.98,251.48,96.7L251.48,96.7z M287.11,100.19l-12.1-16.33l-4.4,1.27l-0.16,14.17
						c-0.03,1.31,0.09,2.42,0.35,3.33c0.19,0.68,0.52,1.12,0.96,1.31c0.45,0.19,1.11,0.19,1.98,0.01c0.49-0.08,1.29-0.28,2.4-0.59
						l0.23,0.82l-9.48,2.74l-0.23-0.82l2.26-0.65l0.02-32.63l1-0.29l16.07,21.67c0.54,0.77,1.11,1.56,1.69,2.36
						c0.6,0.81,1.28,1.43,2.04,1.87c0.77,0.43,1.65,0.5,2.66,0.21l0.24,0.82l-8.77,2.54l-0.23-0.82L287.11,100.19L287.11,100.19z
						 M274.39,82.9l-3.68-5.13l-0.11,0.03l0.06,6.28L274.39,82.9L274.39,82.9z M297.4,96.86l3.31-0.44l-3.36-26.47
						c-0.19-1.49-1.27-2.1-3.24-1.84l-0.68,0.09l-0.11-0.85l15.18-2.01c2.98-0.4,5.58-0.42,7.8-0.06c2.2,0.35,4.23,1.07,6.06,2.17
						c1.19,0.75,2.27,1.64,3.24,2.65c0.98,1.02,1.77,2.13,2.41,3.35c0.64,1.22,1.04,2.49,1.21,3.81c0.43,3.93-0.65,7.51-3.27,10.76
						c-1.04,1.34-2.23,2.53-3.55,3.56c-1.31,1.02-3.02,1.94-5.13,2.73c-2.1,0.8-4.64,1.39-7.64,1.79l-12.12,1.61L297.4,96.86
						L297.4,96.86z M326.28,77.93c-0.42-2.41-1.54-4.57-3.34-6.46c-1.8-1.89-4.05-3.29-6.74-4.19c-2.69-0.91-5.5-1.17-8.43-0.78
						c-3.41,0.45-5.93,1.09-7.56,1.92l3.37,26.52c2.09,0.36,4.91,0.31,8.48-0.16c2.95-0.39,5.56-1.43,7.86-3.11
						c2.3-1.68,4.01-3.75,5.15-6.21C326.2,82.99,326.61,80.49,326.28,77.93L326.28,77.93z M354.84,91.94l3.31,0.4l3.36-26.5
						c0.19-1.49-0.7-2.35-2.67-2.59l-0.68-0.08l0.11-0.85l15.18,1.84c2.98,0.36,5.5,0.99,7.55,1.89c2.04,0.89,3.82,2.1,5.31,3.62
						c0.97,1.02,1.79,2.16,2.47,3.38c0.69,1.23,1.18,2.51,1.49,3.85c0.31,1.34,0.38,2.67,0.21,4c-0.56,3.91-2.51,7.12-5.85,9.62
						c-1.34,1.04-2.79,1.9-4.32,2.56c-1.53,0.66-3.4,1.13-5.64,1.37c-2.23,0.25-4.83,0.19-7.83-0.17l-12.12-1.47L354.84,91.94
						L354.84,91.94z M387.49,80.81c0.19-2.44-0.34-4.82-1.61-7.1s-3.09-4.21-5.47-5.75c-2.37-1.55-5.02-2.51-7.96-2.86
						c-3.41-0.41-6.01-0.43-7.79-0.03l-3.37,26.56c1.93,0.88,4.67,1.53,8.24,1.96c2.95,0.36,5.73,0.01,8.38-1.05
						c2.65-1.06,4.82-2.64,6.53-4.74C386.15,85.69,387.17,83.36,387.49,80.81L387.49,80.81z M411.68,103.56l-16.53-4.6l0.23-0.83
						l3.19,0.89l7.29-25.72c0.25-0.87,0.13-1.53-0.37-1.98c-0.49-0.44-1.3-0.82-2.43-1.14l0.24-0.83l16.76,4.66l0.53-1.88l0.99,0.28
						l-2.83,9.97l-0.99-0.28l0.46-1.61c0.69-2.44,0.45-4.19-0.72-5.26c-1.1-1-3.31-1.96-6.62-2.88l-1.37-0.38l-2.06,7.26l4.63,1.29
						l1.26-4.46l0.83,0.23l-3.08,10.85l-0.83-0.23c0.37-1.29,0.55-2.44,0.55-3.44c0-1-0.46-1.76-1.36-2.3
						c-0.39-0.31-1.15-0.62-2.29-0.94l-5.56,19.62c2.21,0.62,4.37,1.1,6.44,1.45c1.58-0.02,2.8-0.4,3.65-1.15
						c0.85-0.75,1.47-1.84,1.88-3.27l0.65-2.3l0.99,0.28l-3.05,10.75l-0.99-0.28L411.68,103.56L411.68,103.56z M457.14,88.99
						l-0.39,0.77l-2.92-1.48l-13.2,25.84c1.61,0.81,3.08,1.45,4.41,1.91c1.33,0.46,2.61,0.61,3.84,0.44
						c1.23-0.16,2.15-0.85,2.77-2.07l3.43-6.73l0.92,0.47l-6.82,13.36l-0.92-0.47l0.85-1.66l-14.43-7.31l0.39-0.77l2.85,1.44
						l12.26-24.01c0.37-0.73,0.35-1.35-0.08-1.88c-0.43-0.53-1.15-1.05-2.15-1.55l0.39-0.77L457.14,88.99L457.14,88.99z
						 M474.16,133.5l-3.04-1.93l-0.46,0.73l7.67,4.87l0.46-0.73c-0.88-0.56-1.4-1.27-1.59-2.13c-0.17-0.86-0.16-1.79,0.06-2.78
						c0.22-0.98,0.43-1.93,0.65-2.84l5.66-26.49l-0.88-0.56l-24.45,21.73l-1.98-1.26l-0.46,0.73l8.3,5.27l0.46-0.73
						c-0.96-0.61-1.64-1.08-2.02-1.4c-0.71-0.54-1.14-1.03-1.29-1.49c-0.15-0.45-0.03-0.99,0.35-1.59c0.51-0.8,1.26-1.62,2.26-2.48
						l10.72-9.33l3.85,2.45L474.16,133.5L474.16,133.5z M478.74,112.44l-3.34-2.01l4.67-4.23l0.1,0.06L478.74,112.44L478.74,112.44z
						 M532.19,143.42l-8.62,8.27l-0.71-0.74l2.06-1.98c1.43-1.37,2.4-2.72,2.92-4.05c0.5-1.33,0.07-2.71-1.3-4.15
						c-0.69-0.66-1.43-1.14-2.23-1.45c-0.8-0.3-1.58-0.4-2.35-0.28c-0.77,0.12-1.43,0.45-1.97,0.96c-0.81,0.78-1.27,1.72-1.37,2.81
						c-0.1,1.1,0.02,2.24,0.35,3.4c0.33,1.17,0.85,2.73,1.56,4.66c0.76,2.12,1.33,3.95,1.69,5.49c0.36,1.55,0.44,3.06,0.23,4.54
						c-0.21,1.48-0.87,2.75-1.97,3.8c-1.1,1.06-2.41,1.75-3.88,2.08c-1.49,0.32-3.04,0.3-4.66-0.05c-1.63-0.35-3.23-1-4.83-1.94
						c-1.59-0.94-3.06-2.1-4.38-3.48c-1.72-1.79-3.01-3.74-3.87-5.82c-0.86-2.09-1.16-4.11-0.91-6.06c0.26-1.95,1.12-3.62,2.57-5.01
						c1.15-1.1,2.52-1.8,4.13-2.1c1.6-0.3,3.23-0.17,4.88,0.4c1.66,0.56,3.11,1.49,4.37,2.81c0.78,0.81,1.41,1.77,1.92,2.9
						c0.49,1.13,0.73,2.22,0.68,3.29c-0.05,1.06-0.43,1.95-1.16,2.64c-0.7,0.67-1.58,0.99-2.62,0.94c-1.05-0.05-1.99-0.5-2.81-1.35
						c-0.19-0.2-0.45-0.56-0.77-1.08l0.85-0.5c1.34,0.98,2.53,0.98,3.56-0.01c0.44-0.42,0.73-1,0.86-1.75
						c0.14-0.74,0.08-1.53-0.18-2.36c-0.25-0.83-0.7-1.57-1.33-2.23c-0.96-1-2.05-1.65-3.28-1.96c-1.23-0.31-2.45-0.3-3.64,0.02
						c-1.2,0.33-2.21,0.87-3.06,1.61c-1.2,1.15-2.01,2.58-2.43,4.28c-0.42,1.71-0.36,3.52,0.18,5.41c0.55,1.9,1.61,3.67,3.19,5.32
						c1.42,1.48,3.03,2.61,4.84,3.39c1.8,0.78,3.55,1.1,5.25,0.95c1.69-0.15,3.13-0.78,4.29-1.9c0.91-0.92,1.42-2.03,1.54-3.34
						c0.13-1.3,0.01-2.65-0.33-4.05c-0.35-1.4-0.87-3.1-1.56-5.1c-0.67-1.8-1.15-3.35-1.45-4.64c-0.3-1.29-0.36-2.55-0.17-3.76
						c0.2-1.21,0.78-2.28,1.74-3.2c1.26-1.21,2.85-1.62,4.78-1.25c1.94,0.37,3.69,1.31,5.25,2.79c0.65,0.67,1.35,1.8,2.1,3.37
						l1.35-1.29L532.19,143.42L532.19,143.42z M526.57,189.58l-1.52,1.09l0.6,0.84l9.09-6.52l-0.6-0.84l-1.94,1.39
						c-1.21,0.87-2.38,1.33-3.5,1.39c-1.12,0.06-2.31-0.41-3.55-1.38c-1.39-1.57-2.76-3.3-4.09-5.17l16.6-11.89
						c0.69,0.96,1.09,1.68,1.19,2.17c0.37,0.98,0.24,1.86-0.38,2.65c-0.62,0.79-1.48,1.57-2.58,2.35l0.5,0.7l9.18-6.58l-0.5-0.7
						l-3.77,2.7l-2.79-3.91l6.14-4.4l0.82,1.16c1.99,2.79,3.1,4.92,3.34,6.4c0.24,1.57-0.67,3.09-2.73,4.57l-1.36,0.98l0.6,0.84
						l8.43-6.04l-0.6-0.84l-1.59,1.14l-10.1-14.14l-0.7,0.5c0.68,0.95,1.07,1.76,1.18,2.42c0.1,0.66-0.21,1.25-0.95,1.78
						l-21.76,15.59l-1.92-2.69l-0.7,0.5L526.57,189.58L526.57,189.58z M559.06,181.68l3.06,5.95l-2.59,1.34
						c3.48,2.24,6.07,4.92,7.77,8.02c1.22,2.38,1.9,4.94,2.04,7.67c0.13,2.73-0.32,5.21-1.35,7.45c-1.03,2.24-2.54,3.87-4.54,4.9
						c-2.17,1.12-4.46,1.49-6.88,1.1c-2.41-0.38-4.68-1.41-6.82-3.07c-2.14-1.67-3.93-3.77-5.38-6.31l-0.1,0.05
						c0.1,0.77,0.24,2.37,0.43,4.79c0.18,2.42,0.41,4.43,0.72,6.04c0.3,1.61,0.81,3.12,1.54,4.53c0.53,1.03,1.05,1.73,1.56,2.09
						l-0.17,0.6c-1.14-0.55-2.11-1.59-2.9-3.13c-0.65-1.26-1.18-2.61-1.59-4.05c-0.42-1.44-0.72-2.73-0.91-3.87
						c-0.2-1.14-0.49-2.95-0.87-5.45c-0.48-4.74-0.71-8.72-0.71-11.94l-3.82,1.98c-0.6,0.31-0.99,0.62-1.17,0.92
						c-0.18,0.3-0.22,0.66-0.11,1.1c0.23,0.59,0.47,1.21,0.69,1.84c0.25,0.34,0.53,0.82,0.84,1.42l-0.77,0.4l-5.04-9.82l0.77-0.4
						l1.41,2.75l23.93-12.39c1.22-0.63,1.36-1.84,0.44-3.64l-0.24-0.46L559.06,181.68L559.06,181.68z M557.86,189.84
						c3.37,1.1,5.92,3.34,7.65,6.73c1.09,2.29,1.64,4.64,1.62,7.05c0,2.42-0.54,4.62-1.58,6.61c-1.05,1.99-2.5,3.5-4.35,4.54
						c-1.75,0.91-3.65,1.24-5.71,1c-2.06-0.23-3.98-0.99-5.78-2.26c-1.8-1.28-3.22-2.92-4.25-4.93c-1.38-2.69-1.91-6.3-1.59-10.84
						l-0.94-0.16L557.86,189.84L557.86,189.84z M554.45,249.06l-1.76,0.61l0.33,0.98l10.57-3.64l-0.33-0.98l-2.26,0.78
						c-1.41,0.48-2.66,0.59-3.75,0.32c-1.09-0.27-2.09-1.06-3-2.35c-0.87-1.91-1.69-3.96-2.42-6.13l19.29-6.64
						c0.38,1.12,0.55,1.93,0.52,2.42c0.07,1.05-0.3,1.86-1.12,2.43c-0.82,0.57-1.87,1.08-3.14,1.51l0.28,0.81l10.67-3.67l-0.28-0.81
						l-4.38,1.51l-1.54-4.55l7.14-2.46l0.46,1.35c1.1,3.25,1.55,5.62,1.35,7.1c-0.22,1.58-1.53,2.78-3.93,3.6l-1.58,0.54l0.33,0.97
						l9.8-3.37l-0.33-0.97l-1.85,0.64l-5.58-16.47l-0.81,0.28c0.38,1.11,0.52,2,0.43,2.66c-0.09,0.67-0.56,1.14-1.42,1.44
						l-25.29,8.7l-1.06-3.13l-0.81,0.28L554.45,249.06L554.45,249.06z M558.28,257.36l0.51,2.87l24.26-4.47
						c1.35-0.25,2.27-0.57,2.79-0.97c0.83-0.62,1.07-1.9,0.71-3.87l0.84-0.16l0.93,5.18l-22.58,18.6l0.02,0.11l21.13-3.89
						c0.88-0.16,1.55-0.64,2.02-1.45c0.47-0.81,0.61-1.73,0.42-2.79l0.84-0.16l1.4,7.82l-0.84,0.16l-0.47-2.64l-30.89,5.69
						l-0.16-0.9l22.66-18.85l-0.01-0.06l-19.24,3.54c-1.49,0.27-2.43,0.86-2.84,1.75c-0.23,0.67-0.24,1.66,0,2.97l-0.84,0.16
						l-1.52-8.51L558.28,257.36L558.28,257.36z M564.68,306.63l18.48-8.69l-0.35-4.56l-13.86-2.9c-1.28-0.28-2.39-0.38-3.33-0.3
						c-0.71,0.06-1.21,0.29-1.48,0.69c-0.28,0.41-0.41,1.05-0.42,1.94c-0.03,0.5,0,1.32,0.09,2.46l-0.86,0.07l-0.75-9.82l0.86-0.07
						l0.18,2.34l31.97,6.34l0.08,1.04l-24.53,11.54c-0.86,0.38-1.75,0.79-2.66,1.2c-0.92,0.43-1.66,0.98-2.25,1.64
						c-0.58,0.67-0.83,1.52-0.75,2.56l-0.86,0.07l-0.69-9.08l0.85-0.07L564.68,306.63L564.68,306.63z M584.22,297.51l5.78-2.61
						l-0.01-0.11l-6.17-1.16L584.22,297.51z"/>
				</g>
				<path fill-rule="evenodd" fill="#002D74" d="M306.64,535.17l0.62-2.69l0.91,0.2l-2.74,11.91l-0.91-0.2
					c0.5-2.17,0.75-3.83,0.75-4.98c-0.01-1.14-0.36-2.19-1.08-3.14c-0.72-0.96-1.88-1.86-3.46-2.69c-1.59-0.84-3.23-1.45-4.93-1.83
					c-3.28-0.74-6.36-0.7-9.21,0.11c-2.86,0.81-5.22,2.17-7.1,4.08c-1.87,1.91-3.08,4.04-3.62,6.38c-0.45,1.94-0.46,3.93-0.05,5.98
					c0.41,2.05,1.24,3.99,2.44,5.83c1.22,1.83,2.79,3.42,4.72,4.75c1.92,1.34,4.09,2.27,6.5,2.81c2.5,0.56,4.88,0.67,7.09,0.33
					c2.22-0.34,4.21-0.97,5.96-1.86l0.72,1.26c-2.14,0.97-4.5,1.57-7.06,1.8c-2.56,0.23-5.08,0.08-7.57-0.43
					c-3.53-0.79-6.63-2.25-9.31-4.37c-2.69-2.11-4.62-4.59-5.83-7.43c-1.21-2.84-1.49-5.67-0.84-8.5c0.53-2.32,1.6-4.35,3.21-6.12
					c1.6-1.76,3.56-3.15,5.87-4.18c2.31-1.03,4.8-1.67,7.49-1.91c2.68-0.24,5.33-0.07,7.96,0.52
					C300.79,531.62,303.93,533.07,306.64,535.17L306.64,535.17z M349.17,567.85l3.31-0.1l-0.69-27.21c-0.02-0.9-0.36-1.47-1.01-1.73
					c-0.66-0.26-1.58-0.37-2.76-0.33l-0.02-0.87l10.08-0.31l0.02,0.87l-3.27,0.1l0.67,26.49c0.02,0.81,0.07,1.34,0.16,1.59
					c0.14,0.49,0.41,0.83,0.79,1.04c0.47,0.14,1.41,0.19,2.85,0.15l0.02,0.87l-10.12,0.31L349.17,567.85L349.17,567.85z
					 M375.22,535.94l0.11,0.87l-3.3,0.44l3.7,29.15c1.82-0.24,3.42-0.55,4.81-0.93c1.38-0.38,2.55-0.99,3.49-1.83
					c0.94-0.84,1.32-1.94,1.14-3.32l-0.96-7.59l1.04-0.14l1.92,15.07l-1.04,0.14l-0.24-1.87l-16.33,2.17l-0.11-0.86l3.22-0.43
					l-3.44-27.08c-0.1-0.82-0.48-1.33-1.14-1.52c-0.66-0.2-1.56-0.22-2.7-0.07l-0.11-0.86L375.22,535.94L375.22,535.94z
					 M415.53,559.87l-17.01,4.02l-0.2-0.85l3.28-0.78l-6.1-26.39c-0.21-0.9-0.64-1.42-1.3-1.57c-0.65-0.15-1.57-0.09-2.73,0.18
					l-0.2-0.85l17.24-4.07l-0.45-1.93l1.02-0.24l2.36,10.23l-1.02,0.24l-0.38-1.65c-0.58-2.5-1.65-3.94-3.22-4.31
					c-1.48-0.35-3.92-0.12-7.32,0.69l-1.41,0.33l1.72,7.45l4.76-1.13l-1.06-4.57l0.85-0.2l2.57,11.13l-0.85,0.2
					c-0.31-1.33-0.7-2.44-1.2-3.32c-0.49-0.89-1.28-1.34-2.34-1.37c-0.5-0.08-1.33,0.02-2.5,0.29l4.65,20.13
					c2.28-0.54,4.44-1.16,6.46-1.87c1.4-0.8,2.3-1.73,2.69-2.81c0.39-1.08,0.41-2.35,0.07-3.82l-0.54-2.36l1.02-0.24l2.55,11.03
					l-1.02,0.24L415.53,559.87L415.53,559.87z M336.45,537.97l-2.05,26.92c-0.07,0.87,0.04,1.51,0.32,1.92
					c0.37,0.36,1.15,0.62,2.33,0.8c0.24-0.05,0.55-0.06,0.94-0.03l-0.07,0.87l-10.09-0.71l0.07-0.87l3.3,0.23l1.56-20.54l-11.9-0.84
					l-1.38,18.12c-0.09,1.14,0.19,1.9,0.82,2.25c0.38,0.18,1.28,0.32,2.71,0.43l-0.07,0.87l-10.09-0.71l0.07-0.87l3.3,0.23
					l2.06-27.16c0.11-1.45-0.86-2.25-2.91-2.39l-0.7-0.05l0.07-0.87l9.99,0.7l-0.07,0.87l-3.14-0.22l-0.59,7.73l11.9,0.84l0.42-5.56
					c0.06-0.73-0.17-1.3-0.68-1.69c-0.51-0.4-1.22-0.63-2.12-0.69l-0.81-0.06l0.07-0.87l10.09,0.71l-0.07,0.87L336.45,537.97z"/>
			</g>
		</g>
	</g>
</g>
</svg>
